{
    "asset" : {
        "generator" : "Khronos glTF Blender I/O v1.2.75",
        "version" : "2.0"
    },
    "extensionsUsed" : [
        "KHR_texture_transform"
    ],
    "extensionsRequired" : [
        "KHR_texture_transform"
    ],
    "scene" : 0,
    "scenes" : [
        {
            "name" : "Scene",
            "nodes" : [
                0,
                1,
                2,
                3,
                4
            ]
        }
    ],
    "nodes" : [
        {
            "mesh" : 0,
            "name" : "handle",
            "rotation" : [
                0.7071068286895752,
                0,
                0,
                0.7071067094802856
            ],
            "scale" : [
                0.009999999776482582,
                0.009999999776482582,
                0.009999999776482582
            ],
            "translation" : [
                -0.0019925159867852926,
                -0.2221442610025406,
                -0.0006094146519899368
            ]
        },
        {
            "mesh" : 1,
            "name" : "cover",
            "rotation" : [
                0.7071068286895752,
                0,
                0,
                0.7071067094802856
            ],
            "scale" : [
                0.009999999776482582,
                0.009999999776482582,
                0.009999999776482582
            ],
            "translation" : [
                0,
                0.15825097262859344,
                0
            ]
        },
        {
            "mesh" : 2,
            "name" : "bowl_3",
            "rotation" : [
                0.7071068286895752,
                0,
                0,
                0.7071067094802856
            ],
            "translation" : [
                0,
                0.03201581537723541,
                0
            ]
        },
        {
            "mesh" : 3,
            "name" : "bowl_2",
            "rotation" : [
                0.7071068286895752,
                0,
                0,
                0.7071067094802856
            ],
            "translation" : [
                0,
                -0.1729310005903244,
                0
            ]
        },
        {
            "mesh" : 4,
            "name" : "bowl_1",
            "rotation" : [
                0.7071068286895752,
                0,
                0,
                0.7071067094802856
            ],
            "translation" : [
                0,
                -0.3784649968147278,
                0
            ]
        }
    ],
    "materials" : [
        {
            "doubleSided" : true,
            "emissiveFactor" : [
                0,
                0,
                0
            ],
            "name" : "BLACK",
            "pbrMetallicRoughness" : {
                "baseColorFactor" : [
                    0,
                    0,
                    0,
                    1
                ],
                "metallicFactor" : 0,
                "roughnessFactor" : 0
            }
        },
        {
            "doubleSided" : true,
            "emissiveFactor" : [
                0,
                0,
                0
            ],
            "name" : "TOP",
            "pbrMetallicRoughness" : {
                "baseColorTexture" : {
                    "extensions" : {
                        "KHR_texture_transform" : {
                            "offset" : [
                                -1.4901161193847656e-07,
                                1.8000002279877658
                            ],
                            "scale" : [
                                2.4999999627470975,
                                2.4999999627470975
                            ]
                        }
                    },
                    "index" : 0,
                    "texCoord" : 0
                },
                "metallicFactor" : 0,
                "roughnessFactor" : 0
            }
        },
        {
            "doubleSided" : true,
            "emissiveFactor" : [
                0,
                0,
                0
            ],
            "name" : "SIDE",
            "pbrMetallicRoughness" : {
                "baseColorTexture" : {
                    "index" : 1,
                    "texCoord" : 0
                },
                "metallicFactor" : 0,
                "roughnessFactor" : 0
            }
        }
    ],
    "meshes" : [
        {
            "name" : "Mesh",
            "primitives" : [
                {
                    "attributes" : {
                        "POSITION" : 0,
                        "NORMAL" : 1,
                        "TEXCOORD_0" : 2,
                        "TEXCOORD_1" : 3
                    },
                    "indices" : 4,
                    "material" : 0
                }
            ]
        },
        {
            "name" : "Mesh.001",
            "primitives" : [
                {
                    "attributes" : {
                        "POSITION" : 5,
                        "NORMAL" : 6,
                        "TEXCOORD_0" : 7,
                        "TEXCOORD_1" : 8
                    },
                    "indices" : 9,
                    "material" : 0
                },
                {
                    "attributes" : {
                        "POSITION" : 10,
                        "NORMAL" : 11,
                        "TEXCOORD_0" : 12,
                        "TEXCOORD_1" : 13
                    },
                    "indices" : 14,
                    "material" : 1
                }
            ]
        },
        {
            "name" : "Mesh.002",
            "primitives" : [
                {
                    "attributes" : {
                        "POSITION" : 15,
                        "NORMAL" : 16,
                        "TEXCOORD_0" : 17,
                        "TEXCOORD_1" : 18
                    },
                    "indices" : 19,
                    "material" : 0
                },
                {
                    "attributes" : {
                        "POSITION" : 20,
                        "NORMAL" : 21,
                        "TEXCOORD_0" : 22,
                        "TEXCOORD_1" : 23
                    },
                    "indices" : 24,
                    "material" : 2
                }
            ]
        },
        {
            "name" : "Mesh.005",
            "primitives" : [
                {
                    "attributes" : {
                        "POSITION" : 25,
                        "NORMAL" : 26,
                        "TEXCOORD_0" : 27,
                        "TEXCOORD_1" : 28
                    },
                    "indices" : 19,
                    "material" : 0
                },
                {
                    "attributes" : {
                        "POSITION" : 29,
                        "NORMAL" : 30,
                        "TEXCOORD_0" : 31,
                        "TEXCOORD_1" : 32
                    },
                    "indices" : 24,
                    "material" : 2
                }
            ]
        },
        {
            "name" : "Mesh.006",
            "primitives" : [
                {
                    "attributes" : {
                        "POSITION" : 33,
                        "NORMAL" : 34,
                        "TEXCOORD_0" : 35,
                        "TEXCOORD_1" : 36
                    },
                    "indices" : 19,
                    "material" : 0
                },
                {
                    "attributes" : {
                        "POSITION" : 37,
                        "NORMAL" : 38,
                        "TEXCOORD_0" : 39,
                        "TEXCOORD_1" : 40
                    },
                    "indices" : 24,
                    "material" : 2
                }
            ]
        }
    ],
    "textures" : [
        {
            "source" : 0
        },
        {
            "source" : 1
        }
    ],
    "images" : [
        {
            "bufferView" : 15,
            "mimeType" : "image/png",
            "name" : "TOP-TOP.png"
        },
        {
            "bufferView" : 26,
            "mimeType" : "image/png",
            "name" : "side_3"
        }
    ],
    "accessors" : [
        {
            "bufferView" : 0,
            "componentType" : 5126,
            "count" : 1030,
            "max" : [
                50.1992073059082,
                49.79387283325195,
                36.726863861083984
            ],
            "min" : [
                -49.80070495605469,
                -49.67198944091797,
                -86.67613220214844
            ],
            "type" : "VEC3"
        },
        {
            "bufferView" : 1,
            "componentType" : 5126,
            "count" : 1030,
            "type" : "VEC3"
        },
        {
            "bufferView" : 2,
            "componentType" : 5126,
            "count" : 1030,
            "type" : "VEC2"
        },
        {
            "bufferView" : 3,
            "componentType" : 5126,
            "count" : 1030,
            "type" : "VEC2"
        },
        {
            "bufferView" : 4,
            "componentType" : 5123,
            "count" : 3888,
            "type" : "SCALAR"
        },
        {
            "bufferView" : 5,
            "componentType" : 5126,
            "count" : 701,
            "max" : [
                44.7220573425293,
                44.63380813598633,
                2.330721139907837
            ],
            "min" : [
                -44.369407653808594,
                -44.63380813598633,
                -5.972065448760986
            ],
            "type" : "VEC3"
        },
        {
            "bufferView" : 6,
            "componentType" : 5126,
            "count" : 701,
            "type" : "VEC3"
        },
        {
            "bufferView" : 7,
            "componentType" : 5126,
            "count" : 701,
            "type" : "VEC2"
        },
        {
            "bufferView" : 8,
            "componentType" : 5126,
            "count" : 701,
            "type" : "VEC2"
        },
        {
            "bufferView" : 9,
            "componentType" : 5123,
            "count" : 3075,
            "type" : "SCALAR"
        },
        {
            "bufferView" : 10,
            "componentType" : 5126,
            "count" : 51,
            "max" : [
                36.406471252441406,
                36.38838577270508,
                -5.300145626068115
            ],
            "min" : [
                -36.22669219970703,
                -36.38838577270508,
                -7.381031036376953
            ],
            "type" : "VEC3"
        },
        {
            "bufferView" : 11,
            "componentType" : 5126,
            "count" : 51,
            "type" : "VEC3"
        },
        {
            "bufferView" : 12,
            "componentType" : 5126,
            "count" : 51,
            "type" : "VEC2"
        },
        {
            "bufferView" : 13,
            "componentType" : 5126,
            "count" : 51,
            "type" : "VEC2"
        },
        {
            "bufferView" : 14,
            "componentType" : 5123,
            "count" : 225,
            "type" : "SCALAR"
        },
        {
            "bufferView" : 16,
            "componentType" : 5126,
            "count" : 317,
            "max" : [
                0.44999998807907104,
                0.4491119980812073,
                0.10199657082557678
            ],
            "min" : [
                -0.4464516043663025,
                -0.4491119980812073,
                -0.10199657082557678
            ],
            "type" : "VEC3"
        },
        {
            "bufferView" : 17,
            "componentType" : 5126,
            "count" : 317,
            "type" : "VEC3"
        },
        {
            "bufferView" : 18,
            "componentType" : 5126,
            "count" : 317,
            "type" : "VEC2"
        },
        {
            "bufferView" : 19,
            "componentType" : 5126,
            "count" : 317,
            "type" : "VEC2"
        },
        {
            "bufferView" : 20,
            "componentType" : 5123,
            "count" : 1200,
            "type" : "SCALAR"
        },
        {
            "bufferView" : 21,
            "componentType" : 5126,
            "count" : 81,
            "max" : [
                0.44999998807907104,
                0.4491119980812073,
                0.09199657291173935
            ],
            "min" : [
                -0.4464516043663025,
                -0.4491119980812073,
                -0.10199657082557678
            ],
            "type" : "VEC3"
        },
        {
            "bufferView" : 22,
            "componentType" : 5126,
            "count" : 81,
            "type" : "VEC3"
        },
        {
            "bufferView" : 23,
            "componentType" : 5126,
            "count" : 81,
            "type" : "VEC2"
        },
        {
            "bufferView" : 24,
            "componentType" : 5126,
            "count" : 81,
            "type" : "VEC2"
        },
        {
            "bufferView" : 25,
            "componentType" : 5123,
            "count" : 300,
            "type" : "SCALAR"
        },
        {
            "bufferView" : 27,
            "componentType" : 5126,
            "count" : 317,
            "max" : [
                0.44999998807907104,
                0.4491119980812073,
                0.10199657082557678
            ],
            "min" : [
                -0.4464516043663025,
                -0.4491119980812073,
                -0.10199657082557678
            ],
            "type" : "VEC3"
        },
        {
            "bufferView" : 28,
            "componentType" : 5126,
            "count" : 317,
            "type" : "VEC3"
        },
        {
            "bufferView" : 29,
            "componentType" : 5126,
            "count" : 317,
            "type" : "VEC2"
        },
        {
            "bufferView" : 30,
            "componentType" : 5126,
            "count" : 317,
            "type" : "VEC2"
        },
        {
            "bufferView" : 31,
            "componentType" : 5126,
            "count" : 81,
            "max" : [
                0.44999998807907104,
                0.4491119980812073,
                0.09199657291173935
            ],
            "min" : [
                -0.4464516043663025,
                -0.4491119980812073,
                -0.10199657082557678
            ],
            "type" : "VEC3"
        },
        {
            "bufferView" : 32,
            "componentType" : 5126,
            "count" : 81,
            "type" : "VEC3"
        },
        {
            "bufferView" : 33,
            "componentType" : 5126,
            "count" : 81,
            "type" : "VEC2"
        },
        {
            "bufferView" : 34,
            "componentType" : 5126,
            "count" : 81,
            "type" : "VEC2"
        },
        {
            "bufferView" : 35,
            "componentType" : 5126,
            "count" : 317,
            "max" : [
                0.44999998807907104,
                0.4491119980812073,
                0.10199657082557678
            ],
            "min" : [
                -0.4464516043663025,
                -0.4491119980812073,
                -0.10199657082557678
            ],
            "type" : "VEC3"
        },
        {
            "bufferView" : 36,
            "componentType" : 5126,
            "count" : 317,
            "type" : "VEC3"
        },
        {
            "bufferView" : 37,
            "componentType" : 5126,
            "count" : 317,
            "type" : "VEC2"
        },
        {
            "bufferView" : 38,
            "componentType" : 5126,
            "count" : 317,
            "type" : "VEC2"
        },
        {
            "bufferView" : 39,
            "componentType" : 5126,
            "count" : 81,
            "max" : [
                0.44999998807907104,
                0.4491119980812073,
                0.09199657291173935
            ],
            "min" : [
                -0.4464516043663025,
                -0.4491119980812073,
                -0.10199657082557678
            ],
            "type" : "VEC3"
        },
        {
            "bufferView" : 40,
            "componentType" : 5126,
            "count" : 81,
            "type" : "VEC3"
        },
        {
            "bufferView" : 41,
            "componentType" : 5126,
            "count" : 81,
            "type" : "VEC2"
        },
        {
            "bufferView" : 42,
            "componentType" : 5126,
            "count" : 81,
            "type" : "VEC2"
        }
    ],
    "bufferViews" : [
        {
            "buffer" : 0,
            "byteLength" : 12360,
            "byteOffset" : 0
        },
        {
            "buffer" : 0,
            "byteLength" : 12360,
            "byteOffset" : 12360
        },
        {
            "buffer" : 0,
            "byteLength" : 8240,
            "byteOffset" : 24720
        },
        {
            "buffer" : 0,
            "byteLength" : 8240,
            "byteOffset" : 32960
        },
        {
            "buffer" : 0,
            "byteLength" : 7776,
            "byteOffset" : 41200
        },
        {
            "buffer" : 0,
            "byteLength" : 8412,
            "byteOffset" : 48976
        },
        {
            "buffer" : 0,
            "byteLength" : 8412,
            "byteOffset" : 57388
        },
        {
            "buffer" : 0,
            "byteLength" : 5608,
            "byteOffset" : 65800
        },
        {
            "buffer" : 0,
            "byteLength" : 5608,
            "byteOffset" : 71408
        },
        {
            "buffer" : 0,
            "byteLength" : 6150,
            "byteOffset" : 77016
        },
        {
            "buffer" : 0,
            "byteLength" : 612,
            "byteOffset" : 83168
        },
        {
            "buffer" : 0,
            "byteLength" : 612,
            "byteOffset" : 83780
        },
        {
            "buffer" : 0,
            "byteLength" : 408,
            "byteOffset" : 84392
        },
        {
            "buffer" : 0,
            "byteLength" : 408,
            "byteOffset" : 84800
        },
        {
            "buffer" : 0,
            "byteLength" : 450,
            "byteOffset" : 85208
        },
        {
            "buffer" : 0,
            "byteLength" : 2110623,
            "byteOffset" : 85660
        },
        {
            "buffer" : 0,
            "byteLength" : 3804,
            "byteOffset" : 2196284
        },
        {
            "buffer" : 0,
            "byteLength" : 3804,
            "byteOffset" : 2200088
        },
        {
            "buffer" : 0,
            "byteLength" : 2536,
            "byteOffset" : 2203892
        },
        {
            "buffer" : 0,
            "byteLength" : 2536,
            "byteOffset" : 2206428
        },
        {
            "buffer" : 0,
            "byteLength" : 2400,
            "byteOffset" : 2208964
        },
        {
            "buffer" : 0,
            "byteLength" : 972,
            "byteOffset" : 2211364
        },
        {
            "buffer" : 0,
            "byteLength" : 972,
            "byteOffset" : 2212336
        },
        {
            "buffer" : 0,
            "byteLength" : 648,
            "byteOffset" : 2213308
        },
        {
            "buffer" : 0,
            "byteLength" : 648,
            "byteOffset" : 2213956
        },
        {
            "buffer" : 0,
            "byteLength" : 600,
            "byteOffset" : 2214604
        },
        {
            "buffer" : 0,
            "byteLength" : 367442,
            "byteOffset" : 2215204
        },
        {
            "buffer" : 0,
            "byteLength" : 3804,
            "byteOffset" : 2582648
        },
        {
            "buffer" : 0,
            "byteLength" : 3804,
            "byteOffset" : 2586452
        },
        {
            "buffer" : 0,
            "byteLength" : 2536,
            "byteOffset" : 2590256
        },
        {
            "buffer" : 0,
            "byteLength" : 2536,
            "byteOffset" : 2592792
        },
        {
            "buffer" : 0,
            "byteLength" : 972,
            "byteOffset" : 2595328
        },
        {
            "buffer" : 0,
            "byteLength" : 972,
            "byteOffset" : 2596300
        },
        {
            "buffer" : 0,
            "byteLength" : 648,
            "byteOffset" : 2597272
        },
        {
            "buffer" : 0,
            "byteLength" : 648,
            "byteOffset" : 2597920
        },
        {
            "buffer" : 0,
            "byteLength" : 3804,
            "byteOffset" : 2598568
        },
        {
            "buffer" : 0,
            "byteLength" : 3804,
            "byteOffset" : 2602372
        },
        {
            "buffer" : 0,
            "byteLength" : 2536,
            "byteOffset" : 2606176
        },
        {
            "buffer" : 0,
            "byteLength" : 2536,
            "byteOffset" : 2608712
        },
        {
            "buffer" : 0,
            "byteLength" : 972,
            "byteOffset" : 2611248
        },
        {
            "buffer" : 0,
            "byteLength" : 972,
            "byteOffset" : 2612220
        },
        {
            "buffer" : 0,
            "byteLength" : 648,
            "byteOffset" : 2613192
        },
        {
            "buffer" : 0,
            "byteLength" : 648,
            "byteOffset" : 2613840
        }
    ],
    "buffers" : [
        {
            "byteLength" : 2614488,
            "uri" : "data:application/octet-stream;base64,"
        }
    ]
}
